<svg xmlns:dc="http://purl.org/dc/elements/1.1/" xmlns:cc="http://creativecommons.org/ns#" xmlns:rdf="http://www.w3.org/1999/02/22-rdf-syntax-ns#" xmlns:svg="http://www.w3.org/2000/svg" xmlns="http://www.w3.org/2000/svg" xmlns:xlink="http://www.w3.org/1999/xlink" id="svg588283" viewBox="0 0 1024 768" height="768px" width="1024px" version="1.1">
  <metadata id="metadata588289">
    <rdf:rdf>
      <cc:work rdf:about="">
        <dc:format>image/svg+xml</dc:format>
        <dc:type rdf:resource="http://purl.org/dc/dcmitype/StillImage"></dc:type>
      </cc:work>
    </rdf:rdf>
  </metadata>
  <defs id="defs588287"></defs>
  <linearGradient spreadMethod="pad" y2="30%" x2="-10%" y1="120%" x1="30%" id="3d_gradient2-logo-6b0e1d0c-dfff-4b5c-ad78-0d76748d5339">
    <stop id="stop588264" stop-opacity="1" stop-color="#ffffff" offset="0%"></stop>
    <stop id="stop588266" stop-opacity="1" stop-color="#000000" offset="100%"></stop>
  </linearGradient>
  <linearGradient gradientTransform="rotate(-30)" spreadMethod="pad" y2="30%" x2="-10%" y1="120%" x1="30%" id="3d_gradient3-logo-6b0e1d0c-dfff-4b5c-ad78-0d76748d5339">
    <stop id="stop588269" stop-opacity="1" stop-color="#ffffff" offset="0%"></stop>
    <stop id="stop588271" stop-opacity="1" stop-color="#cccccc" offset="50%"></stop>
    <stop id="stop588273" stop-opacity="1" stop-color="#000000" offset="100%"></stop>
  </linearGradient>
  <g id="logo-group">
    <image xlink:href="" id="container" x="272" y="144" width="480" height="480" style="display: none;" transform="translate(0 0)"></image>
    <g id="logo-center" transform="translate(1.1368683772161603e-13 0)">
      <image xlink:href="" id="icon_container" x="0" y="0" style="display: none;"></image>
      <g id="slogan" style="font-style:normal;font-weight:200;font-size:32px;line-height:1;font-family:'Work Sans';font-variant-ligatures:none;text-align:center;text-anchor:middle" transform="translate(0 0)"></g>
      <g id="title" style="font-style:normal;font-weight:300;font-size:72px;line-height:1;font-family:'Montserrat Light Alt1';font-variant-ligatures:none;text-align:center;text-anchor:middle" transform="translate(0 0)">
        <path id="path588292" style="font-style:normal;font-weight:300;font-size:72px;line-height:1;font-family:'Montserrat Light Alt1';font-variant-ligatures:none;text-align:center;text-anchor:middle" d="m 307.57681,-21.744 c -1.872,-2.16 -4.608,-3.528 -8.208,-4.248 2.52,-0.792 4.608,-2.232 6.12,-4.248 1.512,-1.944 2.304,-4.32 2.304,-7.272 0,-4.104 -1.584,-7.272 -4.608,-9.504 -3.024,-2.232 -7.272,-3.384 -12.744,-3.384 h -21.024 v 3.168 h 20.88 c 4.392,0 7.776,0.864 10.152,2.592 2.376,1.728 3.6,4.176 3.6,7.416 0,3.312 -1.224,5.832 -3.6,7.56 -2.376,1.728 -5.76,2.52 -10.152,2.52 h -20.88 v 3.168 h 22.464 c 4.824,0 8.568,0.864 11.088,2.52 2.52,1.728 3.816,4.32 3.816,7.848 0,3.6 -1.296,6.192 -3.816,7.92 -2.52,1.728 -6.192,2.52 -11.088,2.52 h -22.464 V 0 h 22.464 c 6.12,0 10.728,-1.152 13.896,-3.456 3.096,-2.304 4.68,-5.544 4.68,-9.864 0,-3.384 -1.008,-6.192 -2.88,-8.424 z" stroke-width="0" stroke-linejoin="miter" stroke-miterlimit="2" fill="#00ff3d" stroke="#00ff3d" transform="translate(0 308.44) translate(241.4419999999999 50.36) scale(1) translate(-269.41681 50.4)"></path>
        <path id="path588294" style="font-style:normal;font-weight:300;font-size:72px;line-height:1;font-family:'Montserrat Light Alt1';font-variant-ligatures:none;text-align:center;text-anchor:middle" d="m 356.17344,-27.216 h -32.616 v 3.24 h 32.616 z m 0,-23.184 h -32.616 v 3.312 h 32.616 z m -32.616,47.088 V 0 h 32.616 v -3.312 z" stroke-width="0" stroke-linejoin="miter" stroke-miterlimit="2" fill="#00fe53" stroke="#00fe53" transform="translate(0 308.44) translate(301.5826299999999 50.36) scale(1) translate(-323.55744 50.4)"></path>
        <path id="path588296" style="font-style:normal;font-weight:300;font-size:72px;line-height:1;font-family:'Montserrat Light Alt1';font-variant-ligatures:none;text-align:center;text-anchor:middle" d="M 381.43981,-47.088 V 0 h 3.672 v -47.088 h 18.144 V -50.4 h -39.96 v 3.312 z" stroke-width="0" stroke-linejoin="miter" stroke-miterlimit="2" fill="#00fe68" stroke="#00fe68" transform="translate(0 308.44) translate(347.3209999999999 50.36) scale(1) translate(-363.29581 50.4)"></path>
        <path id="path588298" style="font-style:normal;font-weight:300;font-size:72px;line-height:1;font-family:'Montserrat Light Alt1';font-variant-ligatures:none;text-align:center;text-anchor:middle" d="M 422.64294,-47.088 V 0 h 3.672 v -47.088 h 18.144 V -50.4 h -39.96 v 3.312 z" stroke-width="0" stroke-linejoin="miter" stroke-miterlimit="2" fill="#00fd7e" stroke="#00fd7e" transform="translate(0 308.44) translate(394.5241299999999 50.36) scale(1) translate(-404.49894 50.4)"></path>
        <path id="path588300" style="font-style:normal;font-weight:300;font-size:72px;line-height:1;font-family:'Montserrat Light Alt1';font-variant-ligatures:none;text-align:center;text-anchor:middle" d="m 486.11094,-27.216 h -32.616 v 3.24 h 32.616 z m 0,-23.184 h -32.616 v 3.312 h 32.616 z m -32.616,47.088 V 0 h 32.616 v -3.312 z" stroke-width="0" stroke-linejoin="miter" stroke-miterlimit="2" fill="#00fd93" stroke="#00fd93" transform="translate(0 308.44) translate(449.5201299999999 50.36) scale(1) translate(-453.49494 50.4)"></path>
        <path id="path588302" style="font-style:normal;font-weight:300;font-size:72px;line-height:1;font-family:'Montserrat Light Alt1';font-variant-ligatures:none;text-align:center;text-anchor:middle" d="m 528.29731,-17.64 c 3.744,-1.08 6.696,-2.952 8.712,-5.688 2.016,-2.736 3.096,-6.048 3.096,-10.08 0,-5.256 -1.8,-9.432 -5.4,-12.456 -3.6,-3.024 -8.568,-4.536 -14.904,-4.536 h -18.072 v 3.312 h 18.072 c 5.328,0 9.432,1.224 12.312,3.6 2.808,2.376 4.248,5.76 4.248,10.08 0,4.392 -1.44,7.776 -4.248,10.152 -2.88,2.376 -6.984,3.528 -12.312,3.528 h -18.072 V 0 h 3.672 v -16.488 h 14.4 c 1.44,0 3.096,-0.072 4.896,-0.36 L 536.72131,0 h 4.176 z" stroke-width="0" stroke-linejoin="miter" stroke-miterlimit="2" fill="#00fca9" stroke="#00fca9" transform="translate(0 308.44) translate(503.7544999999999 50.36) scale(1) translate(-501.72931 50.4)"></path>
        <path id="path588304" style="font-style:normal;font-weight:300;font-size:72px;line-height:1;font-family:'Montserrat Light Alt1';font-variant-ligatures:none;text-align:center;text-anchor:middle" d="m 561.53994,-2.952 c 3.96,2.232 8.424,3.312 13.392,3.312 3.6,0 6.912,-0.576 10.008,-1.8 3.096,-1.152 5.76,-2.952 7.92,-5.256 l -2.304,-2.376 c -4.104,4.032 -9.288,6.048 -15.48,6.048 -4.248,0 -8.064,-0.936 -11.52,-2.88 -3.456,-1.872 -6.192,-4.536 -8.136,-7.92 -2.016,-3.384 -2.952,-7.2 -2.952,-11.376 0,-4.176 0.936,-7.92 2.952,-11.304 1.944,-3.384 4.68,-6.048 8.136,-7.992 3.456,-1.872 7.272,-2.88 11.52,-2.88 6.264,0 11.448,2.016 15.48,5.976 l 2.304,-2.376 c -2.16,-2.304 -4.824,-4.032 -7.848,-5.184 -3.096,-1.152 -6.48,-1.8 -10.08,-1.8 -4.968,0 -9.432,1.152 -13.392,3.312 -3.96,2.232 -7.056,5.256 -9.36,9.144 -2.304,3.888 -3.384,8.28 -3.384,13.104 0,4.896 1.08,9.216 3.384,13.104 2.304,3.888 5.4,6.984 9.36,9.144 z" stroke-width="0" stroke-linejoin="miter" stroke-miterlimit="2" fill="#00fcbe" stroke="#00fcbe" transform="translate(0 308.44) translate(556.8211299999999 50) scale(1) translate(-548.79594 50.76)"></path>
        <path id="path588306" style="font-style:normal;font-weight:300;font-size:72px;line-height:1;font-family:'Montserrat Light Alt1';font-variant-ligatures:none;text-align:center;text-anchor:middle" d="m 612.09631,-2.952 c 3.96,2.232 8.424,3.312 13.392,3.312 4.896,0 9.36,-1.08 13.392,-3.312 3.96,-2.16 7.056,-5.256 9.36,-9.144 2.304,-3.888 3.456,-8.208 3.456,-13.104 0,-4.824 -1.152,-9.216 -3.456,-13.104 -2.304,-3.888 -5.4,-6.912 -9.36,-9.144 -4.032,-2.16 -8.496,-3.312 -13.392,-3.312 -4.968,0 -9.432,1.152 -13.392,3.384 -4.032,2.232 -7.128,5.256 -9.432,9.144 -2.304,3.888 -3.384,8.28 -3.384,13.032 0,4.824 1.08,9.144 3.384,13.032 2.304,3.888 5.4,6.984 9.432,9.216 z m 24.84,-2.952 c -3.456,1.944 -7.272,2.88 -11.448,2.88 -4.248,0 -8.064,-0.936 -11.52,-2.88 -3.456,-1.872 -6.12,-4.536 -8.064,-7.92 -2.016,-3.384 -2.952,-7.2 -2.952,-11.376 0,-4.176 0.936,-7.92 2.952,-11.304 1.944,-3.384 4.608,-6.048 8.064,-7.992 3.456,-1.872 7.272,-2.88 11.52,-2.88 4.176,0 7.992,1.008 11.448,2.88 3.384,1.944 6.048,4.608 8.064,7.992 1.944,3.384 2.952,7.128 2.952,11.304 0,4.176 -1.008,7.992 -2.952,11.376 -2.016,3.384 -4.68,6.048 -8.064,7.92 z" stroke-width="0" stroke-linejoin="miter" stroke-miterlimit="2" fill="#00fbd4" stroke="#00fbd4" transform="translate(0 308.44) translate(613.3054999999999 50) scale(1) translate(-599.28031 50.76)"></path>
        <path id="path588308" style="font-style:normal;font-weight:300;font-size:72px;line-height:1;font-family:'Montserrat Light Alt1';font-variant-ligatures:none;text-align:center;text-anchor:middle" d="m 707.77644,-38.16 c -2.304,-3.816 -5.472,-6.768 -9.504,-9 -4.032,-2.16 -8.712,-3.24 -13.896,-3.24 h -19.944 v 3.312 h 19.656 c 4.608,0 8.712,0.936 12.312,2.808 3.528,1.872 6.264,4.464 8.208,7.704 1.872,3.312 2.88,7.128 2.88,11.376 0,4.32 -1.008,8.064 -2.88,11.376 -1.944,3.312 -4.68,5.904 -8.208,7.776 -3.6,1.872 -7.704,2.736 -12.312,2.736 h -15.984 V -25.2 h -3.672 V 0 h 19.944 c 5.184,0 9.864,-1.08 13.896,-3.24 4.032,-2.16 7.2,-5.112 9.504,-8.928 2.232,-3.816 3.384,-8.136 3.384,-13.032 0,-4.824 -1.152,-9.144 -3.384,-12.96 z" stroke-width="0" stroke-linejoin="miter" stroke-miterlimit="2" fill="#00fbe9" stroke="#00fbe9" transform="translate(0 308.44) translate(684.4576299999999 50.36) scale(1) translate(-664.43244 50.4)"></path>
        <path id="path588310" style="font-style:normal;font-weight:300;font-size:72px;line-height:1;font-family:'Montserrat Light Alt1';font-variant-ligatures:none;text-align:center;text-anchor:middle" d="m 756.53281,-27.216 h -32.616 v 3.24 h 32.616 z m 0,-23.184 h -32.616 v 3.312 h 32.616 z m -32.616,47.088 V 0 h 32.616 v -3.312 z" stroke-width="0" stroke-linejoin="miter" stroke-miterlimit="2" fill="#00faff" stroke="#00faff" transform="translate(0 308.44) translate(749.9419999999999 50.36) scale(1) translate(-723.91681 50.4)"></path>
      </g>
      <image xlink:href="" id="icon" x="0" y="0" style="display: none;"></image>
    </g>
  </g>
</svg>